<svg id="Capa_1" data-name="Capa 1" xmlns="http://www.w3.org/2000/svg" viewBox="0 0 197 51"><defs><style>.cls-1{fill:#157a3e;}.cls-2{fill:#c13234;}.cls-3{fill:#719fcb;}.cls-4{fill:#211915;}</style></defs><title>Sin título-1</title><path class="cls-1" d="M34.81,33.7h-8.7a3.77,3.77,0,0,0-1.41.24,1.61,1.61,0,0,0-1.1,1.49,1.69,1.69,0,0,0,1,1.5c.23.11.36.08.5-.16a3.57,3.57,0,0,1,6.43.17.4.4,0,0,0,.42.27h4.41a.51.51,0,0,0,.53-.33,3.47,3.47,0,0,1,3.45-2,3.4,3.4,0,0,1,3,2.09.41.41,0,0,0,.45.28H45a1.21,1.21,0,0,1,0,2.41q-.56,0-1.11,0a.44.44,0,0,0-.48.3,3.56,3.56,0,0,1-5.64,1.16,3.24,3.24,0,0,1-.86-1.18.43.43,0,0,0-.46-.28c-1.48,0-3,0-4.44,0a.44.44,0,0,0-.45.29A3.57,3.57,0,0,1,25,39.84a.67.67,0,0,0-.54-.38,4.15,4.15,0,0,1-3.23-3.12,4,4,0,0,1,2.5-4.64c.58-.23.57-.23.38-.84L19.61,16.34c-.13-.42-.27-.85-.39-1.27a.41.41,0,0,0-.45-.34H16.51a1.21,1.21,0,1,1,0-2.42H20a1.17,1.17,0,0,1,1.24.9c.36,1.12.73,2.23,1,3.36a.57.57,0,0,0,.66.49H47.15a1.21,1.21,0,0,1,1.27,1.62c-.44,1.83-.91,3.66-1.36,5.49Q46,28.33,45,32.46a1.65,1.65,0,0,1-.49,1,1.39,1.39,0,0,1-.9.27C40.66,33.69,37.74,33.7,34.81,33.7ZM26.33,19.48H23.48c-.22,0-.32.06-.24.3.19.58.37,1.15.54,1.73a.35.35,0,0,0,.4.3h5c.23,0,.31-.09.3-.3,0-.55,0-1.09,0-1.63,0-.32-.11-.4-.41-.4C28.16,19.49,27.24,19.48,26.33,19.48Zm8.5,2.32h0c.86,0,1.72,0,2.58,0,.25,0,.37-.06.36-.33,0-.55,0-1.11,0-1.66,0-.27-.11-.34-.35-.34-1.72,0-3.43,0-5.14,0-.32,0-.41.12-.4.41,0,.51,0,1,0,1.52,0,.3.08.42.39.41C33.12,21.79,34,21.8,34.83,21.8Zm0,4.74c.86,0,1.73,0,2.59,0,.28,0,.37-.1.36-.37,0-.54,0-1.08,0-1.63,0-.22-.07-.34-.32-.34H32.2c-.24,0-.32.1-.32.34,0,.54,0,1.08,0,1.62,0,.3.11.38.39.38C33.12,26.53,34,26.54,34.82,26.54Zm0,4.74h2.58c.25,0,.37-.07.36-.34,0-.55,0-1.11,0-1.66,0-.27-.11-.33-.36-.33H32.24c-.29,0-.37.11-.36.37,0,.52,0,1,0,1.56,0,.3.08.41.39.41C33.12,31.27,34,31.28,34.83,31.28Zm8.11-11.8H40.53c-.24,0-.36.06-.35.33,0,.56,0,1.11,0,1.67,0,.26.11.34.35.34h4.29a.32.32,0,0,0,.37-.27c.13-.57.27-1.15.43-1.72.08-.29,0-.34-.28-.33ZM27.05,24.22H24.94c-.17,0-.3,0-.23.23l.59,1.88c.05.17.17.21.33.21h3.52c.24,0,.33-.1.32-.33,0-.56,0-1.11,0-1.67,0-.26-.1-.34-.35-.34Zm15.32,0h0c-.62,0-1.23,0-1.85,0-.26,0-.35.09-.34.35,0,.56,0,1.13,0,1.7,0,.2.08.28.29.28h3.18a.31.31,0,0,0,.36-.28c.13-.59.28-1.17.44-1.76,0-.22,0-.29-.23-.29ZM27.83,29c-.46,0-.92,0-1.37,0-.25,0-.34.06-.25.32.2.58.38,1.17.56,1.76a.3.3,0,0,0,.35.25c.67,0,1.35,0,2,0,.24,0,.32-.09.32-.33,0-.55,0-1.11,0-1.66,0-.27-.1-.34-.35-.34C28.69,29,28.26,29,27.83,29Zm13.94,0h-1.3c-.2,0-.29.07-.29.28,0,.59,0,1.18,0,1.78,0,.19.08.26.27.26h2A.28.28,0,0,0,42.8,31l.45-1.79c.06-.22,0-.3-.22-.3ZM28.29,39.66a1.25,1.25,0,1,0,0-2.49,1.22,1.22,0,0,0-1.26,1.21A1.21,1.21,0,0,0,28.29,39.66Zm11.85,0a1.25,1.25,0,0,0,0-2.49,1.25,1.25,0,1,0,0,2.49Z"/><path class="cls-2" d="M31.41,15.92c-2.17,0-4.34,0-6.51,0a.5.5,0,0,1-.56-.4c-.23-.75-.49-1.5-.73-2.25a.87.87,0,0,1,.64-1.23l8.54-2.69,1.69-.53a.85.85,0,0,1,1.19.55q1.29,3,2.56,6.1c.18.43.17.44-.31.44Z"/><path class="cls-3" d="M42.67,15.92c-.74,0-1.48,0-2.22,0a.42.42,0,0,1-.46-.32c-.49-1.36-1-2.71-1.48-4.07-.14-.39-.1-.42.32-.35l6.38,1.05c.77.13,1,.55.82,1.28s-.43,1.39-.64,2.09a.37.37,0,0,1-.42.31Z"/><path class="cls-3" d="M62.94,34.84H60.78v3.81a1,1,0,0,1-2,0V28.29a1,1,0,0,1,1-1h3.14a3.76,3.76,0,1,1,0,7.51Zm-2.16-2h2.16a1.81,1.81,0,1,0,0-3.61H60.78Z"/><path class="cls-3" d="M78.76,28.86a6.45,6.45,0,0,1,0,8.88,5.76,5.76,0,0,1-4.2,1.88,5.94,5.94,0,0,1-4.3-1.88,6.53,6.53,0,0,1,0-8.88A5.86,5.86,0,0,1,74.56,27,5.69,5.69,0,0,1,78.76,28.86Zm-.23,4.44a4.52,4.52,0,0,0-1.19-3.07,3.78,3.78,0,0,0-5.62,0,4.44,4.44,0,0,0-1.2,3.07,4.37,4.37,0,0,0,1.2,3.05,3.74,3.74,0,0,0,5.62,0A4.45,4.45,0,0,0,78.53,33.3Z"/><path class="cls-3" d="M92.12,38.16a1,1,0,0,1-.62,1.23,1.44,1.44,0,0,1-.38,0h0a1.24,1.24,0,0,1-.68-.19,1.76,1.76,0,0,1-.57-.61,4.82,4.82,0,0,1-.36-2.11,1.59,1.59,0,0,0-.21-.76,1.7,1.7,0,0,0-.53-.5,3.55,3.55,0,0,0-1-.43H85.69v3.81a1,1,0,0,1-1,1,1,1,0,0,1-1-1V28.29a1,1,0,0,1,1-1h3.14A3.75,3.75,0,0,1,90.24,34a3,3,0,0,1,.62.65,3.34,3.34,0,0,1,.57,1.9,5.37,5.37,0,0,0,.07,1A.91.91,0,0,1,92.12,38.16ZM89.66,31.1a1.81,1.81,0,0,0-1.81-1.82H85.69v3.61h2.16A1.8,1.8,0,0,0,89.66,31.1Z"/><path class="cls-3" d="M102.13,29.28H99.34v9.37a1,1,0,0,1-1,1,1,1,0,0,1-1-1V29.28H94.63a1,1,0,0,1-1-1,1,1,0,0,1,1-1h7.5a1,1,0,0,1,1,1A1,1,0,0,1,102.13,29.28Z"/><path class="cls-3" d="M114.72,28.86a6.45,6.45,0,0,1,0,8.88,5.76,5.76,0,0,1-4.2,1.88,5.92,5.92,0,0,1-4.3-1.88,6.53,6.53,0,0,1,0-8.88,5.84,5.84,0,0,1,4.3-1.88A5.69,5.69,0,0,1,114.72,28.86Zm-.23,4.44a4.53,4.53,0,0,0-1.2-3.07,3.77,3.77,0,0,0-5.61,0,4.44,4.44,0,0,0-1.2,3.07,4.37,4.37,0,0,0,1.2,3.05,3.73,3.73,0,0,0,5.61,0A4.46,4.46,0,0,0,114.49,33.3Z"/><path class="cls-4" d="M135.78,28.29V38.65a1,1,0,0,1-1,1,1,1,0,0,1-1-1V31.26l-2.52,3.51a1,1,0,0,1-.79.41h0a1,1,0,0,1-.81-.41l-2.51-3.51v7.39a1,1,0,0,1-2,0V28.29a1,1,0,0,1,1-1h0a.94.94,0,0,1,.77.4l3.5,4.85L134,27.73a1,1,0,0,1,.79-.4h0A1,1,0,0,1,135.78,28.29Z"/><path class="cls-4" d="M147.27,35.25v3.44a.94.94,0,0,1-.93.93,1,1,0,0,1-.92-.75,4,4,0,0,1-2.33.75,4.09,4.09,0,0,1-3-1.28,4.52,4.52,0,0,1-1.19-3.09,4.45,4.45,0,0,1,1.19-3.09,4,4,0,0,1,5.32-.55,1,1,0,0,1,.92-.77,1,1,0,0,1,.93.95Zm-1.87,0a2.59,2.59,0,0,0-.68-1.81,2.15,2.15,0,0,0-1.63-.72,2.11,2.11,0,0,0-1.64.72,2.57,2.57,0,0,0-.66,1.81,2.65,2.65,0,0,0,.66,1.81,2.22,2.22,0,0,0,1.64.68,2.26,2.26,0,0,0,1.63-.68A2.66,2.66,0,0,0,145.4,35.25Z"/><path class="cls-4" d="M156.11,31.77a.93.93,0,0,1-.93.93,1.67,1.67,0,0,0-1.05.34,2.6,2.6,0,0,0-.81.84,5.55,5.55,0,0,0-.72,1.47v3.34a1,1,0,0,1-1,.93.93.93,0,0,1-.93-.93V31.77a.92.92,0,0,1,.93-.91.94.94,0,0,1,1,.91v.12a3,3,0,0,1,.37-.35,3.89,3.89,0,0,1,2.21-.68A.91.91,0,0,1,156.11,31.77Z"/><path class="cls-4" d="M158.41,38.65V28.29a1,1,0,0,1,2,0v6.08l3.6-3.6a1,1,0,0,1,1.37,0,1,1,0,0,1,0,1.37l-2.63,2.63L165.4,38a1,1,0,0,1-.14,1.37.9.9,0,0,1-.61.23.94.94,0,0,1-.74-.35l-2.58-3.13-1,1v1.54a1,1,0,0,1-2,0Z"/><path class="cls-4" d="M167.19,35.23a4.35,4.35,0,0,1,4.29-4.39,4.2,4.2,0,0,1,4.23,4.07V35a.41.41,0,0,1,0,.16.84.84,0,0,1-.91.7h-5.59a2.36,2.36,0,0,0,.6,1.16,2.71,2.71,0,0,0,1.69.79,2.82,2.82,0,0,0,1.82-.44,1,1,0,0,1,1.32,0,.8.8,0,0,1,0,1.14,4.44,4.44,0,0,1-3.14,1.16A4.36,4.36,0,0,1,167.19,35.23Zm1.92-.86h5a2.89,2.89,0,0,0-2.6-1.86A2.45,2.45,0,0,0,169.11,34.37Z"/><path class="cls-4" d="M181.75,31.81a1,1,0,0,1-1,1h-.43v4.9a1,1,0,0,1,1,1,1,1,0,0,1-1,1,2,2,0,0,1-2-1.95v-4.9h-.51a1,1,0,0,1-1-1,1,1,0,0,1,1-1h.51V28.29a1,1,0,0,1,2,0v2.55h.43A1,1,0,0,1,181.75,31.81Z"/></svg>